<svg xmlns="http://www.w3.org/2000/svg" width="1024" height="1024" viewBox="0 0 1024 1024">
  <defs>
    <clipPath id="head2"><circle cx="512" cy="486" r="300"/></clipPath>
  </defs>
  <!-- 투명 배경 위 캐릭터 (적응형 안전영역에 맞춰 축소) -->
  <g transform="translate(512,512) scale(0.62) translate(-512,-470)">
    <path d="M232 1024 C232 858 360 792 512 792 C664 792 792 858 792 1024 Z" fill="#F2F5FA"/>
    <path d="M512 792 l-30 34 30 150 30 -150 Z" fill="#2C5680"/>
    <path d="M488 792 h48 l-24 30 Z" fill="#3A6EA5"/>

    <g clip-path="url(#head2)">
      <circle cx="512" cy="486" r="300" fill="#FCE0BE"/>
      <ellipse cx="512" cy="300" rx="320" ry="210" fill="#33323F"/>
    </g>

    <path d="M398 452 q40 -22 86 -4" stroke="#33323F" stroke-width="18"
          stroke-linecap="round" fill="none"/>
    <path d="M540 448 q46 -18 86 4" stroke="#33323F" stroke-width="18"
          stroke-linecap="round" fill="none"/>
    <circle cx="430" cy="516" r="30" fill="#33323F"/>
    <circle cx="594" cy="516" r="30" fill="#33323F"/>
    <circle cx="440" cy="506" r="9" fill="#FFFFFF"/>
    <circle cx="604" cy="506" r="9" fill="#FFFFFF"/>
    <circle cx="392" cy="582" r="34" fill="#FF9E9E" opacity="0.55"/>
    <circle cx="632" cy="582" r="34" fill="#FF9E9E" opacity="0.55"/>
    <path d="M452 600 q60 64 120 0" stroke="#33323F" stroke-width="18"
          stroke-linecap="round" fill="none"/>

    <circle cx="724" cy="356" r="86" fill="#34C759" stroke="#FFFFFF" stroke-width="14"/>
    <g stroke="#FFFFFF" stroke-width="14" stroke-linecap="round">
      <line x1="724" y1="356" x2="724" y2="312"/>
      <line x1="724" y1="356" x2="758" y2="372"/>
    </g>
  </g>
</svg>
